<svg width="35" height="35" viewBox="0 0 35 35" fill="none" xmlns="http://www.w3.org/2000/svg">
<path d="M17.5078 34.25C18.4629 34.25 19.2942 33.4925 19.2942 32.5439V19.2598H32.4793C33.4289 19.2598 34.25 18.4617 34.25 17.5077C34.25 16.5366 33.4273 15.7556 32.4793 15.7556H19.2942V2.45611C19.2942 1.50751 18.4629 0.75 17.5078 0.75C16.5354 0.75 15.7215 1.50912 15.7215 2.45611V15.7556H2.53634C1.59176 15.7556 0.75 16.5334 0.75 17.5077C0.75 18.465 1.59008 19.2598 2.53634 19.2598H15.7215V32.5439C15.7215 33.4909 16.5354 34.25 17.5078 34.25Z" fill="#61646B" stroke="#61646B" stroke-width="0.5"/>
</svg>
