<svg width="29" height="28" viewBox="0 0 29 28" fill="none" xmlns="http://www.w3.org/2000/svg">
<path d="M13.9414 3.59766C15.0078 3.59766 16.0391 3.76172 17.0117 4.07812L17.7617 2.25C16.5547 1.83984 15.2656 1.60547 13.9414 1.60547C12.6172 1.60547 11.3164 1.83984 10.1094 2.25L10.8828 4.07812C11.8438 3.76172 12.875 3.59766 13.9414 3.59766ZM22.8242 9.01172L24.6406 8.26172C23.4688 5.94141 21.5586 4.03125 19.2383 2.85938L18.4883 4.67578C20.3398 5.625 21.875 7.14844 22.8242 9.01172ZM9.39453 4.67578L8.64453 2.87109C6.32422 4.03125 4.41406 5.94141 3.25391 8.26172L5.08203 9.02344C6.01953 7.16016 7.54297 5.63672 9.39453 4.67578ZM23.9141 13.5586C23.9141 14.625 23.75 15.6562 23.4453 16.6172L25.2617 17.3906C25.6719 16.1836 25.9062 14.8828 25.9062 13.5586C25.9062 12.2227 25.6719 10.9336 25.2617 9.72656L23.4336 10.5C23.75 11.4609 23.9141 12.4922 23.9141 13.5586ZM4.00391 13.5586C4.00391 12.4922 4.16797 11.4609 4.47266 10.5117L2.63281 9.73828C2.23438 10.9453 2 12.2227 2 13.5586C2 14.8828 2.23438 16.1719 2.64453 17.3789L4.47266 16.6055C4.16797 15.6562 4.00391 14.625 4.00391 13.5586ZM18.4883 22.4297L19.2383 24.2578C21.5703 23.0859 23.4805 21.1758 24.6289 18.8555L22.8359 18.1055C21.8867 19.9688 20.3516 21.4805 18.4883 22.4297ZM5.08203 18.1055L3.26562 18.8555C4.4375 21.1758 6.32422 23.0859 8.64453 24.2461L9.39453 22.418C7.54297 21.4688 6.01953 19.957 5.08203 18.1055ZM13.9531 23.5195C12.875 23.5195 11.8438 23.3555 10.8828 23.0391L10.1211 24.8672C11.3281 25.2773 12.6289 25.5117 13.9531 25.5117C15.2773 25.5117 16.5664 25.2773 17.7617 24.8789L17 23.0508C16.0391 23.3555 15.0195 23.5195 13.9531 23.5195Z" fill="#61646B"/>
</svg>
