<svg width="36" height="36" viewBox="0 0 36 36" fill="none" xmlns="http://www.w3.org/2000/svg">
<path d="M22.0078 13.6367C23.2266 13.6367 24.2578 12.8516 24.6562 11.7734H28.7109C29.1914 11.7734 29.6133 11.3516 29.6133 10.8242C29.6133 10.2969 29.1914 9.88672 28.7109 9.88672H24.6562C24.2695 8.79688 23.2266 8 22.0078 8C20.7891 8 19.7344 8.79688 19.3477 9.88672H6.9375C6.41016 9.88672 6 10.2969 6 10.8242C6 11.3516 6.41016 11.7734 6.9375 11.7734H19.3594C19.7461 12.8516 20.7891 13.6367 22.0078 13.6367ZM22.0078 12.1953C21.2344 12.1953 20.6367 11.5859 20.6367 10.8125C20.6367 10.0391 21.2344 9.44141 22.0078 9.44141C22.7812 9.44141 23.3789 10.0391 23.3789 10.8125C23.3789 11.5859 22.7812 12.1953 22.0078 12.1953ZM6.89062 17.0352C6.41016 17.0352 6 17.457 6 17.9844C6 18.5117 6.41016 18.9219 6.89062 18.9219H11.0859C11.4727 20.0234 12.5156 20.8086 13.7344 20.8086C14.9531 20.8086 15.9961 20.0234 16.3945 18.9219H28.6641C29.1914 18.9219 29.6133 18.5117 29.6133 17.9844C29.6133 17.457 29.1914 17.0352 28.6641 17.0352H16.3828C15.9961 15.957 14.9531 15.1719 13.7344 15.1719C12.5156 15.1719 11.4727 15.957 11.0859 17.0352H6.89062ZM13.7344 19.3555C12.9727 19.3555 12.3633 18.7461 12.3633 17.9844C12.3633 17.2109 12.9727 16.6133 13.7344 16.6133C14.5078 16.6133 15.1055 17.2109 15.1055 17.9844C15.1055 18.7461 14.5078 19.3555 13.7344 19.3555ZM22.0078 27.957C23.2266 27.957 24.2695 27.1719 24.6562 26.082H28.7109C29.1914 26.082 29.6133 25.6719 29.6133 25.1445C29.6133 24.6172 29.1914 24.1953 28.7109 24.1953H24.6562C24.2695 23.1055 23.2266 22.332 22.0078 22.332C20.7891 22.332 19.7461 23.1055 19.3594 24.1953H6.9375C6.41016 24.1953 6 24.6172 6 25.1445C6 25.6719 6.41016 26.082 6.9375 26.082H19.3477C19.7461 27.1719 20.7891 27.957 22.0078 27.957ZM22.0078 26.5156C21.2344 26.5156 20.6367 25.9062 20.6367 25.1445C20.6367 24.3594 21.2344 23.7734 22.0078 23.7734C22.7812 23.7734 23.3789 24.3594 23.3789 25.1445C23.3789 25.9062 22.7812 26.5156 22.0078 26.5156Z" fill="#61646B"/>
</svg>
