<svg width="28" height="28" viewBox="0 0 28 28" fill="none" xmlns="http://www.w3.org/2000/svg">
<mask id="mask0_13_118" style="mask-type:luminance" maskUnits="userSpaceOnUse" x="2" y="1" width="25" height="26">
<path fill-rule="evenodd" clip-rule="evenodd" d="M2.33333 1.1669H26.2498V26.2561H2.33333V1.1669Z" fill="white"/>
</mask>
<g mask="url(#mask0_13_118)">
<path fill-rule="evenodd" clip-rule="evenodd" d="M16.0029 17.8398C17.4076 17.8398 18.5509 18.975 18.5509 20.3703V23.959C18.5509 24.2588 18.7913 24.4992 19.0993 24.5062H21.3229C23.0753 24.5062 24.4998 23.0992 24.4998 21.3702V11.1922C24.4916 10.5972 24.2081 10.0372 23.7216 9.66501L16.0298 3.53068C14.9973 2.71284 13.5529 2.71284 12.5169 3.53301L4.8776 9.66268C4.37243 10.0465 4.08893 10.6065 4.0831 11.212V21.3702C4.0831 23.0992 5.5076 24.5062 7.25993 24.5062H9.5046C9.82077 24.5062 10.0774 24.2553 10.0774 23.9473C10.0774 23.8797 10.0856 23.812 10.0996 23.7478V20.3703C10.0996 18.9832 11.2359 17.8492 12.6301 17.8398H16.0029ZM21.3229 26.2562H19.0783C17.7926 26.2258 16.8009 25.2167 16.8009 23.959V20.3703C16.8009 19.9398 16.4428 19.5898 16.0029 19.5898H12.6359C12.2054 19.5922 11.8496 19.9433 11.8496 20.3703V23.9473C11.8496 24.0348 11.8379 24.1188 11.8134 24.1982C11.6874 25.3532 10.7004 26.2562 9.5046 26.2562H7.25993C4.54277 26.2562 2.3331 24.064 2.3331 21.3702V11.2038C2.34477 10.0442 2.8791 8.98251 3.80193 8.28368L11.4261 2.16451C13.1049 0.834509 15.4441 0.834509 17.1194 2.16218L24.7984 8.28718C25.7003 8.97434 26.2346 10.0337 26.2498 11.1793V21.3702C26.2498 24.064 24.0401 26.2562 21.3229 26.2562V26.2562Z" fill="#61646B"/>
</g>
</svg>
