<svg width="28" height="28" viewBox="0 0 28 28" fill="none" xmlns="http://www.w3.org/2000/svg">
<path fill-rule="evenodd" clip-rule="evenodd" d="M21.323 26.2562H19.0783C17.7926 26.2259 16.801 25.2167 16.801 23.959V20.3704C16.801 19.9399 16.4428 19.5899 16.003 19.5899H12.636C12.2055 19.5922 11.8496 19.9434 11.8496 20.3704V23.9474C11.8496 24.0349 11.838 24.1189 11.8135 24.1982C11.6875 25.3532 10.7005 26.2562 9.50463 26.2562H7.25996C4.5428 26.2562 2.33313 24.064 2.33313 21.3702V11.2039C2.3448 10.0442 2.87913 8.98254 3.80196 8.28371L11.4261 2.16454C13.105 0.83454 15.4441 0.83454 17.1195 2.16221L24.7985 8.28721C25.7003 8.97437 26.2346 10.0337 26.2498 11.1794V21.3702C26.2498 24.064 24.0401 26.2562 21.323 26.2562Z" fill="#61646B"/>
</svg>
