<svg width="30" height="28" viewBox="0 0 30 28" fill="none" xmlns="http://www.w3.org/2000/svg">
<path d="M3.08337 10.3203C3.08337 15.3125 7.26697 20.2227 13.8763 24.4414C14.1224 24.5938 14.474 24.7578 14.7201 24.7578C14.9662 24.7578 15.3177 24.5938 15.5756 24.4414C22.1732 20.2227 26.3568 15.3125 26.3568 10.3203C26.3568 6.17188 23.5092 3.24219 19.7123 3.24219C17.5443 3.24219 15.7865 4.27344 14.7201 5.85547C13.6771 4.28516 11.8959 3.24219 9.72791 3.24219C5.93103 3.24219 3.08337 6.17188 3.08337 10.3203ZM4.97009 10.3203C4.97009 7.20312 6.98572 5.12891 9.70447 5.12891C11.9076 5.12891 13.1732 6.5 13.9232 7.67188C14.2396 8.14062 14.4388 8.26953 14.7201 8.26953C15.0013 8.26953 15.1771 8.12891 15.517 7.67188C16.3256 6.52344 17.5443 5.12891 19.7357 5.12891C22.4545 5.12891 24.4701 7.20312 24.4701 10.3203C24.4701 14.6797 19.8646 19.3789 14.9662 22.6367C14.849 22.7188 14.767 22.7773 14.7201 22.7773C14.6732 22.7773 14.5912 22.7188 14.4857 22.6367C9.57556 19.3789 4.97009 14.6797 4.97009 10.3203Z" fill="#61646B"/>
</svg>
