<svg width="36" height="32" viewBox="0 0 36 32" fill="none" xmlns="http://www.w3.org/2000/svg">
<path fill-rule="evenodd" clip-rule="evenodd" d="M7 7.5H29C30.1046 7.5 31 8.39543 31 9.5V23.5C31 24.6046 30.1046 25.5 29 25.5H7C5.89543 25.5 5 24.6046 5 23.5V9.5C5 8.39543 5.89543 7.5 7 7.5ZM29 11.8134L24.3552 16.4582L29 21.0828V11.8134ZM28.5932 23.5L22.941 17.8725L21.5355 19.2779C19.5829 21.2305 16.4171 21.2305 14.4645 19.2779L13.0689 17.8824L7.42671 23.5H28.5932ZM7 21.1026L11.6547 16.4682L7 11.8134V21.1026ZM28.485 9.5H7.51499L15.8787 17.8637C17.0503 19.0353 18.9497 19.0353 20.1213 17.8637L28.485 9.5Z" fill="white"/>
</svg>
