<svg width="15" height="16" viewBox="0 0 15 16" fill="none" xmlns="http://www.w3.org/2000/svg">
<path d="M7.50356 15.5C7.88124 15.5 8.2019 15.2004 8.2019 14.8381V8.68625H14.3088C14.6793 8.68625 15 8.37274 15 8.00348C15 7.62726 14.6793 7.32071 14.3088 7.32071H8.2019V1.16187C8.2019 0.799582 7.88124 0.5 7.50356 0.5C7.11876 0.5 6.80523 0.799582 6.80523 1.16187V7.32071H0.698337C0.327791 7.32071 0 7.62726 0 8.00348C0 8.37274 0.327791 8.68625 0.698337 8.68625H6.80523V14.8381C6.80523 15.2004 7.11876 15.5 7.50356 15.5Z" fill="#A3A3A3"/>
</svg>
