<svg width="12" height="12" viewBox="0 0 12 12" fill="none" xmlns="http://www.w3.org/2000/svg">
<path fill-rule="evenodd" clip-rule="evenodd" d="M6.72309 6.83818H5.02925V5.16155C5.02925 4.94797 4.85413 4.77463 4.63836 4.77463C4.42259 4.77463 4.24747 4.94797 4.24747 5.16155V6.83818H2.55363C2.33786 6.83818 2.16275 7.01152 2.16275 7.2251C2.16275 7.43919 2.33786 7.61202 2.55363 7.61202H4.24747V9.28865C4.24747 9.50275 4.42259 9.67557 4.63836 9.67557C4.85413 9.67557 5.02925 9.50275 5.02925 9.28865V7.61202H6.72309C6.93886 7.61202 7.11397 7.43919 7.11397 7.2251C7.11397 7.01152 6.93886 6.83818 6.72309 6.83818ZM8.23464 9.67557C8.23464 10.2456 7.76766 10.7073 7.19228 10.7073H2.0847C1.50879 10.7073 1.04233 10.2456 1.04233 9.67557V4.77463C1.04233 4.20509 1.50879 3.74285 2.0847 3.74285H7.19228C7.76766 3.74285 8.23464 4.20509 8.23464 4.77463V9.67557ZM7.19231 2.71108H2.08473C0.932915 2.71108 0 3.63503 0 4.77463V9.67557C0 10.8152 0.932915 11.7391 2.08473 11.7391H7.19231C8.3436 11.7391 9.27703 10.8152 9.27703 9.67557V4.77463C9.27703 3.63503 8.3436 2.71108 7.19231 2.71108ZM9.9153 0.260864H4.80772C3.7466 0.260864 2.88039 1.04863 2.74958 2.06389H3.80288C3.92015 1.62075 4.32354 1.29264 4.80772 1.29264H9.9153C10.4907 1.29264 10.9577 1.75436 10.9577 2.32442V7.22536C10.9577 7.75879 10.547 8.19265 10.0221 8.2463V9.27808C11.1224 9.22236 12 8.32884 12 7.22536V2.32442C12 1.18482 11.0666 0.260864 9.9153 0.260864Z" fill="#A0A0A0"/>
</svg>
